<svg xmlns="http://www.w3.org/2000/svg" viewBox="0 0 222.908 166.129"><path d="M0,165.886l2.652-13.2H5.427L4.354,158.11h.06l4.961-5.427h3.038l-4.8,5.427,2.957,7.776h-2.9l-2.107-6.034-2,2.167-.769,3.867Z"/><path d="M12.453,165.886l1.985-10.044h2.248l-.122,1.944h.082a5.708,5.708,0,0,1,1.4-1.569,2.741,2.741,0,0,1,1.682-.618,3.316,3.316,0,0,1,.637.051,1.242,1.242,0,0,1,.415.152l-.911,2.389a1.42,1.42,0,0,0-.476-.131,4.746,4.746,0,0,0-.516-.031,2.093,2.093,0,0,0-1.3.486,4.961,4.961,0,0,0-1.216,1.56l-1.133,5.811Z"/><path d="M20.836,161.836a6.319,6.319,0,0,1,.5-2.541,6.457,6.457,0,0,1,1.3-1.964,5.951,5.951,0,0,1,1.793-1.276,4.755,4.755,0,0,1,2-.456,3.56,3.56,0,0,1,1.519.294,2.711,2.711,0,0,1,1.023.81,3.263,3.263,0,0,1,.566,1.195,5.939,5.939,0,0,1,.173,1.468,4.3,4.3,0,0,1-.06.719c-.042.236-.089.459-.143.668a4.775,4.775,0,0,1-.172.547c-.06.155-.111.273-.151.354H23.469a2.14,2.14,0,0,0,.6,1.823,2.44,2.44,0,0,0,1.651.567,2.415,2.415,0,0,0,.971-.223,5.574,5.574,0,0,0,.891-.486l.973,1.741a6.107,6.107,0,0,1-1.519.739,6.406,6.406,0,0,1-2.086.314,4.593,4.593,0,0,1-1.671-.294,3.557,3.557,0,0,1-1.3-.85,3.967,3.967,0,0,1-.84-1.346A5.011,5.011,0,0,1,20.836,161.836Zm2.855-1.883h3.646a2.66,2.66,0,0,0,.1-.749,1.826,1.826,0,0,0-.293-1.043,1.194,1.194,0,0,0-1.064-.435,2.134,2.134,0,0,0-1.377.556A3.434,3.434,0,0,0,23.691,159.953Z"/><path d="M31.082,165.886l2.025-10.044h2.754l-2,10.044Zm3.929-11.542a1.731,1.731,0,0,1-1.032-.334,1.15,1.15,0,0,1-.466-1,1.565,1.565,0,0,1,.131-.628,1.6,1.6,0,0,1,.365-.526,1.748,1.748,0,0,1,.547-.354,1.724,1.724,0,0,1,.677-.132,1.685,1.685,0,0,1,1.043.344,1.17,1.17,0,0,1,.456.993,1.545,1.545,0,0,1-.5,1.174A1.72,1.72,0,0,1,35.011,154.344Z"/><path d="M40.114,166.129a3.88,3.88,0,0,1-.971-.131,4.852,4.852,0,0,1-.983-.375,4.913,4.913,0,0,1-.911-.607,3.736,3.736,0,0,1-.739-.831l1.6-1.336a2.916,2.916,0,0,0,2.167,1.255,1.779,1.779,0,0,0,1-.273.8.8,0,0,0,.416-.679.844.844,0,0,0-.446-.729q-.445-.284-1.3-.769a5.149,5.149,0,0,1-1.437-1.144,2.4,2.4,0,0,1-.587-1.63,2.889,2.889,0,0,1,.3-1.316,3.185,3.185,0,0,1,.831-1.043,3.892,3.892,0,0,1,1.235-.679,4.645,4.645,0,0,1,1.518-.243,3.818,3.818,0,0,1,1.853.446,5.994,5.994,0,0,1,1.448,1.093L43.6,158.576a3.776,3.776,0,0,0-.811-.648,1.881,1.881,0,0,0-.972-.263,1.5,1.5,0,0,0-.941.273.828.828,0,0,0-.354.679.672.672,0,0,0,.141.425,1.493,1.493,0,0,0,.385.334q.243.151.536.3c.2.1.4.212.6.334a5.63,5.63,0,0,1,1.508,1.134,2.379,2.379,0,0,1,.6,1.681,2.872,2.872,0,0,1-.314,1.336,3.187,3.187,0,0,1-.861,1.043,4.023,4.023,0,0,1-1.316.678A5.556,5.556,0,0,1,40.114,166.129Z"/><path d="M48.093,165.886l-1.277-10.044H49.57l.345,4.921q.06.75.081,1.519t.04,1.539h.081q.345-.77.668-1.529t.669-1.529l2.247-4.921h2.714l-5.123,10.044Z"/><path d="M56.638,161.836a6.319,6.319,0,0,1,.5-2.541,6.438,6.438,0,0,1,1.3-1.964,5.951,5.951,0,0,1,1.793-1.276,4.755,4.755,0,0,1,2-.456,3.563,3.563,0,0,1,1.519.294,2.711,2.711,0,0,1,1.023.81,3.263,3.263,0,0,1,.566,1.195,5.939,5.939,0,0,1,.173,1.468,4.3,4.3,0,0,1-.061.719c-.041.236-.089.459-.142.668a4.983,4.983,0,0,1-.172.547c-.061.155-.112.273-.152.354h-5.71a2.137,2.137,0,0,0,.6,1.823,2.5,2.5,0,0,0,2.622.344,5.574,5.574,0,0,0,.891-.486l.973,1.741a6.125,6.125,0,0,1-1.519.739,6.406,6.406,0,0,1-2.086.314,4.593,4.593,0,0,1-1.671-.294,3.549,3.549,0,0,1-1.3-.85,3.985,3.985,0,0,1-.841-1.346A5.012,5.012,0,0,1,56.638,161.836Zm2.855-1.883h3.646a2.66,2.66,0,0,0,.1-.749,1.818,1.818,0,0,0-.293-1.043,1.191,1.191,0,0,0-1.063-.435,2.134,2.134,0,0,0-1.377.556A3.434,3.434,0,0,0,59.493,159.953Z"/><path d="M66.884,165.886l1.984-10.044h2.248L71,157.786h.081a5.727,5.727,0,0,1,1.4-1.569,2.738,2.738,0,0,1,1.681-.618,3.32,3.32,0,0,1,.638.051,1.242,1.242,0,0,1,.415.152l-.911,2.389a1.419,1.419,0,0,0-.477-.131,4.714,4.714,0,0,0-.515-.031,2.091,2.091,0,0,0-1.3.486,4.961,4.961,0,0,0-1.216,1.56l-1.134,5.811Z"/><path d="M77.454,165.886H75.166l2.855-14.195H80.8l-.668,3.22-.507,1.883h.041a6,6,0,0,1,1.417-.871,3.765,3.765,0,0,1,1.5-.324,2.5,2.5,0,0,1,2.085.952,4.335,4.335,0,0,1,.75,2.734,7.929,7.929,0,0,1-.445,2.683,7.477,7.477,0,0,1-1.2,2.177,5.722,5.722,0,0,1-1.71,1.458,4.107,4.107,0,0,1-2,.526,2.373,2.373,0,0,1-1.265-.354,2.2,2.2,0,0,1-.861-.962H77.9Zm3.929-8.019a2.479,2.479,0,0,0-1.043.274,2.513,2.513,0,0,0-1.023.982l-.769,3.787a1.578,1.578,0,0,0,.577.729,1.37,1.37,0,0,0,.739.222,1.8,1.8,0,0,0,1.013-.324,3.11,3.11,0,0,0,.86-.891,4.823,4.823,0,0,0,.6-1.336,6.049,6.049,0,0,0,.223-1.681,2.21,2.21,0,0,0-.325-1.336A1.016,1.016,0,0,0,81.383,157.867Z"/><path d="M90.05,166.129a2.5,2.5,0,0,1-2.086-.952,4.33,4.33,0,0,1-.749-2.733,7.9,7.9,0,0,1,.445-2.683,7.437,7.437,0,0,1,1.194-2.177,5.679,5.679,0,0,1,1.722-1.458,4.164,4.164,0,0,1,2.005-.527,2.534,2.534,0,0,1,1.3.355,2.143,2.143,0,0,1,.891.962h.041l.445-1.074h2.207l-2,10.044H93.209l.04-1.316h-.061A5.8,5.8,0,0,1,91.67,165.7,3.55,3.55,0,0,1,90.05,166.129Zm1.215-2.268a2.275,2.275,0,0,0,1.083-.314,2.921,2.921,0,0,0,1.063-1.164l.709-3.564a1.642,1.642,0,0,0-.618-.729,1.405,1.405,0,0,0-.719-.223,1.808,1.808,0,0,0-1.012.324,3.126,3.126,0,0,0-.861.891,4.842,4.842,0,0,0-.6,1.337,6.007,6.007,0,0,0-.223,1.681,2.262,2.262,0,0,0,.314,1.336A1.012,1.012,0,0,0,91.265,163.861Z"/><path d="M98.555,165.886l1.984-10.044h2.248l-.04,1.337h.081a9.6,9.6,0,0,1,1.579-1.114,3.622,3.622,0,0,1,1.8-.466,2.287,2.287,0,0,1,1.822.658,2.855,2.855,0,0,1,.567,1.914,6.384,6.384,0,0,1-.04.7c-.028.236-.068.483-.122.739l-1.255,6.277h-2.775l1.2-5.933q.061-.3.111-.527a1.9,1.9,0,0,0,.051-.424.913.913,0,0,0-1.033-1.034,1.8,1.8,0,0,0-.961.314,6.6,6.6,0,0,0-1.145.983l-1.3,6.621Z"/><path d="M118.055,156.814l.243-1.9.607-3.22h2.775l-2.856,14.195h-2.247l.04-1.316h-.06a5.8,5.8,0,0,1-1.519,1.134,3.55,3.55,0,0,1-1.62.425,2.5,2.5,0,0,1-2.086-.952,4.33,4.33,0,0,1-.749-2.733,7.9,7.9,0,0,1,.445-2.683,7.439,7.439,0,0,1,1.195-2.177,5.676,5.676,0,0,1,1.721-1.458,4.164,4.164,0,0,1,2-.527,2.259,2.259,0,0,1,1.225.335,2.229,2.229,0,0,1,.82.88Zm-3.422,7.047a2.166,2.166,0,0,0,1.063-.314,3.265,3.265,0,0,0,1.083-1.164l.709-3.564a1.642,1.642,0,0,0-.618-.729,1.405,1.405,0,0,0-.719-.223,1.808,1.808,0,0,0-1.012.324,3.126,3.126,0,0,0-.861.891,4.842,4.842,0,0,0-.6,1.337,6.007,6.007,0,0,0-.223,1.681,2.27,2.27,0,0,0,.314,1.336A1.014,1.014,0,0,0,114.633,163.861Z"/><path d="M132.392,166.129a6.037,6.037,0,0,1-2.187-.375,4.459,4.459,0,0,1-1.65-1.083,4.675,4.675,0,0,1-1.034-1.731,7.133,7.133,0,0,1-.354-2.339,9.186,9.186,0,0,1,.547-3.189,8.18,8.18,0,0,1,1.509-2.592,7.048,7.048,0,0,1,2.288-1.742,6.569,6.569,0,0,1,2.885-.638,4.174,4.174,0,0,1,2.2.557,4.22,4.22,0,0,1,1.488,1.549L136.2,156a2.823,2.823,0,0,0-.84-.871,2.053,2.053,0,0,0-1.1-.283,3.294,3.294,0,0,0-1.692.456,4.459,4.459,0,0,0-1.346,1.225,5.96,5.96,0,0,0-.881,1.782,7.08,7.08,0,0,0-.314,2.106,5.653,5.653,0,0,0,.153,1.377,2.774,2.774,0,0,0,.5,1.053,2.169,2.169,0,0,0,.891.678,3.331,3.331,0,0,0,1.316.233,2.543,2.543,0,0,0,.779-.121,2.364,2.364,0,0,0,.658-.325l.568-2.591h-2.167l.425-2.268h4.6l-1.215,6.3a7.038,7.038,0,0,1-1.822.982A6.506,6.506,0,0,1,132.392,166.129Z"/><path d="M139.5,161.836a6.319,6.319,0,0,1,.5-2.541,6.457,6.457,0,0,1,1.3-1.964,5.951,5.951,0,0,1,1.793-1.276,4.755,4.755,0,0,1,2-.456,3.56,3.56,0,0,1,1.519.294,2.711,2.711,0,0,1,1.023.81,3.247,3.247,0,0,1,.566,1.195,5.892,5.892,0,0,1,.173,1.468,4.3,4.3,0,0,1-.06.719q-.061.354-.143.668a4.775,4.775,0,0,1-.172.547c-.06.155-.111.273-.151.354h-5.711a2.14,2.14,0,0,0,.6,1.823,2.5,2.5,0,0,0,2.623.344,5.606,5.606,0,0,0,.89-.486l.973,1.741a6.09,6.09,0,0,1-1.519.739,6.4,6.4,0,0,1-2.086.314,4.593,4.593,0,0,1-1.671-.294,3.545,3.545,0,0,1-1.295-.85,3.954,3.954,0,0,1-.841-1.346A5.011,5.011,0,0,1,139.5,161.836Zm2.855-1.883H146a2.66,2.66,0,0,0,.1-.749,1.826,1.826,0,0,0-.293-1.043,1.194,1.194,0,0,0-1.064-.435,2.136,2.136,0,0,0-1.377.556A3.434,3.434,0,0,0,142.354,159.953Z"/><path d="M149.745,165.886l1.984-10.044h2.249l-.122,1.944h.082a5.708,5.708,0,0,1,1.4-1.569,2.741,2.741,0,0,1,1.682-.618,3.316,3.316,0,0,1,.637.051,1.242,1.242,0,0,1,.415.152l-.911,2.389a1.42,1.42,0,0,0-.476-.131,4.746,4.746,0,0,0-.516-.031,2.093,2.093,0,0,0-1.3.486,4.961,4.961,0,0,0-1.216,1.56l-1.133,5.811Z"/><path d="M161.005,166.129a2.5,2.5,0,0,1-2.086-.952,4.33,4.33,0,0,1-.749-2.733,7.9,7.9,0,0,1,.445-2.683,7.439,7.439,0,0,1,1.195-2.177,5.676,5.676,0,0,1,1.721-1.458,4.164,4.164,0,0,1,2-.527,2.534,2.534,0,0,1,1.3.355,2.143,2.143,0,0,1,.891.962h.041l.445-1.074h2.207l-2,10.044h-2.247l.04-1.316h-.06a5.8,5.8,0,0,1-1.519,1.134A3.55,3.55,0,0,1,161.005,166.129Zm1.215-2.268a2.275,2.275,0,0,0,1.083-.314,2.914,2.914,0,0,0,1.063-1.164l.709-3.564a1.642,1.642,0,0,0-.618-.729,1.405,1.405,0,0,0-.719-.223,1.808,1.808,0,0,0-1.012.324,3.126,3.126,0,0,0-.861.891,4.842,4.842,0,0,0-.6,1.337,6.007,6.007,0,0,0-.223,1.681,2.262,2.262,0,0,0,.314,1.336A1.012,1.012,0,0,0,162.22,163.861Z"/><path d="M169.894,161.735l.425-1.964h4.739l-.425,1.964Z"/><path d="M182.57,166.129a6.031,6.031,0,0,1-2.186-.375,4.462,4.462,0,0,1-1.651-1.083,4.673,4.673,0,0,1-1.033-1.731,7.133,7.133,0,0,1-.354-2.339,9.162,9.162,0,0,1,.547-3.189,8.2,8.2,0,0,1,1.508-2.592,7.069,7.069,0,0,1,2.288-1.742,6.573,6.573,0,0,1,2.886-.638,4.168,4.168,0,0,1,2.2.557,4.215,4.215,0,0,1,1.489,1.549L186.377,156a2.823,2.823,0,0,0-.84-.871,2.058,2.058,0,0,0-1.1-.283,3.294,3.294,0,0,0-1.692.456,4.447,4.447,0,0,0-1.346,1.225,5.96,5.96,0,0,0-.881,1.782,7.08,7.08,0,0,0-.314,2.106,5.653,5.653,0,0,0,.153,1.377,2.774,2.774,0,0,0,.5,1.053,2.172,2.172,0,0,0,.89.678,3.336,3.336,0,0,0,1.317.233,2.543,2.543,0,0,0,.779-.121,2.364,2.364,0,0,0,.658-.325l.568-2.591H182.9l.424-2.268h4.6l-1.215,6.3a7.055,7.055,0,0,1-1.822.982A6.512,6.512,0,0,1,182.57,166.129Z"/><path d="M189.374,165.886l1.984-10.044h2.248l-.121,1.944h.081a5.727,5.727,0,0,1,1.4-1.569,2.738,2.738,0,0,1,1.682-.618,3.316,3.316,0,0,1,.637.051,1.242,1.242,0,0,1,.415.152l-.911,2.389a1.42,1.42,0,0,0-.476-.131,4.746,4.746,0,0,0-.516-.031,2.093,2.093,0,0,0-1.3.486,4.961,4.961,0,0,0-1.216,1.56l-1.134,5.811Z"/><path d="M197.757,161.836a6.319,6.319,0,0,1,.5-2.541,6.457,6.457,0,0,1,1.3-1.964,5.951,5.951,0,0,1,1.793-1.276,4.755,4.755,0,0,1,2-.456,3.563,3.563,0,0,1,1.519.294,2.711,2.711,0,0,1,1.023.81,3.263,3.263,0,0,1,.566,1.195,5.939,5.939,0,0,1,.173,1.468,4.3,4.3,0,0,1-.061.719q-.061.354-.142.668a4.775,4.775,0,0,1-.172.547c-.061.155-.111.273-.151.354H200.39a2.14,2.14,0,0,0,.6,1.823,2.5,2.5,0,0,0,2.622.344,5.574,5.574,0,0,0,.891-.486l.973,1.741a6.107,6.107,0,0,1-1.519.739,6.406,6.406,0,0,1-2.086.314,4.593,4.593,0,0,1-1.671-.294,3.549,3.549,0,0,1-1.3-.85,3.967,3.967,0,0,1-.84-1.346A4.99,4.99,0,0,1,197.757,161.836Zm2.855-1.883h3.646a2.66,2.66,0,0,0,.1-.749,1.818,1.818,0,0,0-.293-1.043,1.191,1.191,0,0,0-1.063-.435,2.134,2.134,0,0,0-1.377.556A3.434,3.434,0,0,0,200.612,159.953Z"/><path d="M208,165.886l2.025-10.044h2.754l-2,10.044Zm3.929-11.542a1.736,1.736,0,0,1-1.033-.334,1.152,1.152,0,0,1-.465-1,1.581,1.581,0,0,1,.13-.628,1.606,1.606,0,0,1,.366-.526,1.748,1.748,0,0,1,.547-.354,1.724,1.724,0,0,1,.677-.132,1.685,1.685,0,0,1,1.043.344,1.17,1.17,0,0,1,.456.993,1.545,1.545,0,0,1-.5,1.174A1.72,1.72,0,0,1,211.933,154.344Z"/><path d="M213.391,165.886l.3-1.559,5.326-6.318H215.4l.4-2.167h7.108l-.3,1.6-5.326,6.277h4.212l-.425,2.167Z"/><path d="M146.256,123.769h6.3c4.734,0,6.948,1.653,6.636,4.317-.636,2.883-2.844,3.906-8.208,3.906H144.99Zm2.52-14.877h6c3.783,0,5.676,1.038,5.046,3.394-.315,2.486-2.529,3.666-6,3.666H147.51Zm-39.117-1.314h.318c.318,3.163.318,5.517.636,7.966l.621,8.087h-8.2l3.471-8.067c.945-2.337,1.89-4.8,3.15-7.986m74.079-6.5-4.056,22.878c-2.208,12.484,3.414,16.617,16.662,16.617,13.884,0,20.511-4.4,22.4-16.547l3.783-22.948H210.864l-3.8,23.451c-.942,5.614-3.459,8.3-9.135,8.3-6.312,0-7.26-2.844-6.312-8.3l3.783-23.451Zm-45.687,0-6.312,38.737h19.875c10.41,0,18.3-2.581,19.56-10.918.948-5.19-1.584-8.877-9.468-9.54V119.1c5.679-.351,9.465-3.438,10.413-8.4,1.26-7.339-4.422-9.628-16.725-9.628Zm-35.322,0L83.8,139.811H96.417l3.471-8.352h11.976l.633,8.352h12.621l-5.988-38.737Zm-58.047,0-6.309,38.737H49.416c1.893-13.108,3.465-21.9,3.783-26.389h.321c.948,4.437,3.15,13.255,7.254,26.389h16.4L83.8,101.074H72.759c-2.2,13.065-3.471,21.864-4.1,26.388h-.321c-.63-4.452-3.147-13.316-6.933-26.388Z" fill="#0069b4"/><path d="M50.141,71.05c-21.18,18.7-31.818,41.313-36.852,68.79H1.433c5.313-28.938,19.449-55.719,41.844-75.1Zm148.89,17.955-.853.255c-13.061-20.316-30.554-34.053-53.612-41.409l2.9-5.037c22.958,8.658,40.065,24.759,51.561,46.191" fill="#b1b2b3" fill-rule="evenodd"/><path d="M62.917,63.585c-.528-.669.426-1.182.429-1.232l-2.883-3.676a1.441,1.441,0,0,1,.261-1.863l1.452-.992c2.277-1.548,4.632-3.148,6.855-4.9,3.063-2.625,5.889-5.262,7.068-8.307a16.9,16.9,0,0,1-2.838,3.216.548.548,0,0,1-.369.138.577.577,0,0,1-.324-.1c-.93-.672-1.839-1.387-2.745-2.1l-.5-.393c-4.911-3.866-8.421-8.709-11.811-13.388l-1.5-2.059c-1.731-2.493-4.317-3.078-7.053-3.7a18.282,18.282,0,0,1-4.938-1.626,4.805,4.805,0,0,1-2.76-4.01,2.552,2.552,0,0,1,1.086-2.374,1.594,1.594,0,0,1,.672-.153,2.408,2.408,0,0,1,.786.16,1.58,1.58,0,0,0,.474.11c.222-.03.312-.158.48-.446a2.3,2.3,0,0,1,.591-.733,2.14,2.14,0,0,1,1.293-.423,5.38,5.38,0,0,1,2.433.87c.276.153.546.3.8.418a21.915,21.915,0,0,0,5.568,2.183,20.556,20.556,0,0,1,7.173,3.162c1.8,1.371,3.822,3.09,5.781,4.752,1.371,1.158,2.691,2.283,3.855,3.213,2.211,1.773,8.715,6.021,13.647,7.092a9.158,9.158,0,0,0,1.953.21,10.553,10.553,0,0,0,6.57-2.46c.522-.492,1.065-.98,1.614-1.479,2.514-2.274,5.112-4.625,6.393-7.458.429-.951,1.014-1.152,1.425-1.152.039,0,.258.024.3.033a.626.626,0,0,1,.216.1,2.284,2.284,0,0,0,1.422.392,6.99,6.99,0,0,0,1.734-.258.543.543,0,0,1,.138-.017.55.55,0,0,1,.351.128.539.539,0,0,1,.2.453,4.684,4.684,0,0,1-1.695,3.9,11.268,11.268,0,0,1-2.886,1.452,8.907,8.907,0,0,0-3.438,2.01L99.136,33.3c-3.183,3.061-6.192,5.946-6.783,9.388C90.064,48.6,84.682,53.5,79.366,58.017a2.335,2.335,0,0,0-.168.939l.624-.483a.566.566,0,0,1,.336-.113.539.539,0,0,1,.39.165.7.7,0,0,1,.21.56,18.3,18.3,0,0,0-.282,2.9c-.084,1.884-.171,3.834-1.248,5.373a2.113,2.113,0,0,1-1.713.918,1.6,1.6,0,0,1-.276-.021l-6.324-.9c-.048.093.708,1.176-.732.952a14.83,14.83,0,0,1-3.291-1.006l-5.709,4.386,4.1-5.766s-1.872-1.716-2.37-2.343" fill="#fff"/><path d="M122.543,56.68a5.723,5.723,0,0,1-3.609-1.773,5.415,5.415,0,0,0-3.33-1.689l-.687-.006a55.126,55.126,0,0,0-6.057.4,47.153,47.153,0,0,1-4.908.339,23,23,0,0,1-2.517-.135,62.561,62.561,0,0,1-12.567-2.85.55.55,0,0,1-.261-.87,28.561,28.561,0,0,0,4.7-8.148.553.553,0,0,1,.717-.33,57.055,57.055,0,0,0,20.154,3.219c1.779,0,3.642-.057,5.535-.171h.033a.556.556,0,0,1,.291.084,42.574,42.574,0,0,1,5.463,3.888,2.012,2.012,0,0,1,.618,2.22,3.2,3.2,0,0,1-.264.54c-.234.411-.264.522-.18.663a1.914,1.914,0,0,0,.366.378,1.784,1.784,0,0,1,.8,1.428c-.069,1.623-1.623,2.136-2.652,2.475l-.318.1a4.064,4.064,0,0,1-1.329.237" fill="#fff"/><path d="M149.358,63.7a.986.986,0,0,0-.579-.519c-4.815-1.959-9.384-3.564-13.2-6.807a34.3,34.3,0,0,0,6.861,1.962c1.86.231,4.5.591,5.97-.333a.279.279,0,0,0-.105-.5c-7.185-1.263-14.364-3.756-27.318-13.758a1.468,1.468,0,0,0-1.095-.288c-7.695.468-17.859.1-25.488-3a15.589,15.589,0,0,1,3.21-4.086,43.766,43.766,0,0,1,4.119-3.957c.894-.672,3.636-1.548,5.04-2.445s17.676-11.367,17.676-11.367-11.082,3.741-15.051,5.076c-.267.087-.384.048-.459,0-1.365-.894-2.784-1.788-4.557-1.5-2.526.624-2.9,3.057-4.146,4.656a64.079,64.079,0,0,1-6.633,6.6,8.922,8.922,0,0,1-6.519,1.953c-5.292-.939-9.777-3.837-14.13-7.035-2.7-2.067-6.36-5.643-9.8-8.049A17.751,17.751,0,0,0,57.5,17.582,75.615,75.615,0,0,1,28.26.266c-.426-.408-.744-.285-.774-.039-.15,1.152,1.206,3.081,2.157,4.479a37.461,37.461,0,0,0,6,5.712c-4.593-1.584-8.565-4.65-12.627-7.557-.45-.321-1.062-.483-1.134-.027a3.839,3.839,0,0,0,1.077,2.8c3.6,4.245,8.07,6.357,12.627,8.3A52.133,52.133,0,0,1,21.8,10.187c-.492-.192-1.266-.459-1.539-.177-.2.207.123.99.558,1.329,4.026,3.144,8.664,4.311,13.437,5.421a33.912,33.912,0,0,1-12.225-.981c-.78-.21-2.472-.543-2.472-.075,0,.771,1.05,1.4,1.782,1.746,3.732,1.782,7.7,2.121,11.817,2.538a32.622,32.622,0,0,1-5.877.519c-2.115.03-4.239-.258-6.267-.186-.351.012-.72.24-.2.534,3.564,1.983,7.815,1.758,12.054,1.845a24.784,24.784,0,0,1-5.421,1.1c-1.548.195-3.174-.207-4.614.171-.261.069-.18.507.348.753,2.829,1.317,5.94,1.035,8.937.981l-.117.114c-1.209,1.08-2.685.906-4.383,1.44-.249.078-.2.42.06.579,2.358,1.422,4.887-.837,7.209.345a39.613,39.613,0,0,1,9.459,7.116c5.727,5.472,12.87,11.985,21.507,16.527a54.222,54.222,0,0,1-6.384,4.341,1.725,1.725,0,0,0-.417,2.523c1.08,1.422,3.858,4.9,3.858,4.9.492-.375,1.281-1.026.864-1.557-.711-.909-2.88-3.693-2.88-3.693a.877.877,0,0,1,.174-1.1c2.778-1.9,5.6-3.762,8.3-5.883,3.834-3.285,8.088-7.164,7.845-12.168a15.171,15.171,0,0,1-4.326,6.231c-1.095-.795-2.163-1.647-3.231-2.481-5.565-4.383-9.3-10.02-13.2-15.339C53.5,23.348,48.2,24.3,44.292,22.124a4.256,4.256,0,0,1-2.481-3.519,2,2,0,0,1,.81-1.9c.69-.291,1.152.288,1.842.171.663-.114.741-.924,1.212-1.269,1.245-.906,2.751.378,3.978.924,3.921,2.406,8.64,2.229,12.633,5.28,3.042,2.325,6.8,5.694,9.624,7.959,2.2,1.761,8.751,6.084,13.878,7.2a10.8,10.8,0,0,0,9.018-2.385c2.943-2.763,6.516-5.544,8.13-9.114.186-.411.519-.936,1.1-.807.993.765,2.562.507,3.63.234a4.166,4.166,0,0,1-1.473,3.48c-2.19,1.605-4.14,1.332-6.381,3.51-3.642,3.537-7.311,6.7-8,10.71-2.259,5.814-7.824,10.776-12.8,15-.507.429-.348,2.472-.348,2.472l1.5-1.155.057.06c-.564,2.652.093,5.88-1.443,8.073a1.53,1.53,0,0,1-1.458.666c-2.076-.288-4.485-.639-6.327-.9-.618-.087-.717.921-.807,1.5,2.394.375,4.824.768,7.086,1.077,2.331.318,3.777-2.43,4.1-4.71.27-1.908.15-3.975.474-5.865a104.362,104.362,0,0,0,15.906,4.077c7.377,1.407,16.518-.765,22.605,3.4,1.962,1.344,2.775,3.81,3.633,5.076.318.468.858,1.269,1.479,1.038.135-.048.171-.306.078-.519-.588-1.338-1.341-2.8-1.038-4.383,0,0,1.416,2.544,1.962,3.345,1,1.47,2.646,3.807,4.209,3.807.246,0,.27-.315.171-.462-1.881-2.877-3.588-5.622-4.152-8.82a35.14,35.14,0,0,0,5.481,7.494c.834.8,1.725,1.674,2.652,1.6.162-.012.348-.228.1-.582-2.619-3.684-4.767-6.525-6.093-10.188a36.73,36.73,0,0,0,7.611,8.13c.933.669,2.109,1.365,3.1,1.074a.314.314,0,0,0,.129-.5c-3.441-3.579-6.873-7.191-8.706-11.358a50.05,50.05,0,0,0,8.19,6.861c1.446.918,3.732,1.938,4.83,1.458a.306.306,0,0,0,.069-.48c-3.927-3.186-8.16-6.342-11.475-10.434,1.212.678,2.433,1.653,3.69,2.364,3.747,2.118,8.22,4.293,12.342,3.69.339-.051.9-.414.75-.807m-25.665-7.779c-3.441,1.194-4.7-3.2-8.079-3.258-5.775-.105-9.327,1.125-14.121.6A63.014,63.014,0,0,1,89.04,50.438a29.35,29.35,0,0,0,4.788-8.3c7.752,2.937,16.77,3.627,25.917,3.081a41.424,41.424,0,0,1,5.394,3.84,1.469,1.469,0,0,1,.462,1.614c-.195.534-.774,1.05-.405,1.671.306.516,1.125.807,1.095,1.5-.057,1.38-1.56,1.722-2.6,2.082"/><path d="M71.624,57.127a100.677,100.677,0,0,1-8.247,12.165l.06.06C67.748,65.7,71.9,61.7,76.124,57.877l.057,2.421L68.8,67.162,55.478,78.808V74.947A77.191,77.191,0,0,0,71.336,53.608Z"/></svg>