<svg version="1" xmlns="http://www.w3.org/2000/svg" width="933.333" height="933.333" viewBox="0 0 700 700"><path d="M820 5329 c0 -25 38 -102 82 -167 41 -61 146 -170 225 -235 35 -28 61 -52 58 -55 -7 -7 -185 83 -280 143 -49 31 -135 89 -190 128 -137 99 -144 102 -154 74 -22 -58 77 -185 234 -302 64 -47 249 -150 327 -181 25 -10 45 -21 42 -25 -4 -7 -111 11 -218 36 -79 18 -136 37 -319 103 -132 47 -157 48 -142 3 8 -26 130 -110 218 -150 75 -34 204 -78 330 -111 48 -13 85 -25 83 -27 -5 -5 -240 -4 -291 2 -89 10 -133 16 -190 30 -153 36 -185 38 -185 11 0 -49 202 -135 380 -161 25 -4 52 -8 60 -10 8 -1 53 -6 100 -10 154 -14 45 -28 -233 -29 -165 -1 -256 -5 -254 -11 6 -18 64 -45 139 -64 83 -22 155 -29 301 -33 53 -1 97 -6 97 -10 0 -4 -6 -8 -12 -9 -7 0 -20 -2 -28 -4 -8 -2 -32 -6 -54 -10 -21 -4 -48 -9 -60 -12 -11 -2 -78 -6 -149 -8 -136 -4 -155 -8 -137 -30 31 -37 149 -59 317 -60 62 0 113 -3 113 -6 0 -9 -70 -39 -105 -45 -67 -11 -106 -26 -102 -37 10 -32 104 -41 202 -21 71 14 111 7 185 -32 93 -50 237 -159 351 -264 50 -46 105 -97 122 -112 18 -16 57 -53 87 -81 30 -29 114 -102 185 -162 72 -60 132 -112 135 -115 32 -36 319 -231 439 -300 l94 -53 -29 -24 c-16 -13 -76 -55 -134 -93 -211 -137 -211 -136 -82 -301 48 -62 106 -132 130 -157 l42 -45 -27 -36 c-50 -68 -60 -80 -109 -138 -64 -76 -145 -162 -218 -235 l-60 -59 -1 -88 c-1 -98 1 -99 55 -49 14 13 63 57 110 97 47 41 116 101 154 135 179 157 232 204 258 224 14 11 28 11 71 2 71 -14 95 -19 139 -24 21 -3 53 -8 70 -11 148 -24 178 -27 212 -21 77 15 141 123 152 255 10 124 12 146 13 189 1 26 6 42 14 42 6 0 55 -14 107 -31 52 -17 103 -32 112 -34 9 -2 50 -13 90 -24 40 -11 107 -28 148 -36 41 -9 84 -19 95 -21 40 -10 221 -43 265 -49 67 -9 165 -14 360 -20 207 -5 279 -11 379 -31 191 -39 292 -109 378 -263 51 -92 74 -121 95 -121 23 0 23 17 -3 77 -11 26 -23 71 -26 98 l-5 50 18 -25 c11 -14 25 -35 32 -48 6 -12 18 -32 25 -44 24 -44 87 -127 119 -158 36 -35 94 -64 108 -55 5 3 -15 45 -44 93 -29 48 -65 110 -79 137 -25 50 -70 176 -64 181 2 2 39 -52 84 -119 117 -176 261 -313 294 -280 6 6 -21 52 -71 124 -70 101 -120 179 -155 244 -19 35 -47 110 -37 100 6 -5 33 -39 61 -74 107 -135 261 -278 334 -311 43 -19 92 -21 92 -3 0 7 -25 38 -55 70 -89 93 -196 221 -248 297 -53 76 -105 166 -97 166 3 0 27 -21 53 -46 186 -182 368 -308 478 -332 100 -21 97 7 -11 92 -47 37 -91 73 -98 79 -7 7 -42 37 -77 67 -93 79 -207 189 -243 234 l-31 38 90 -57 c232 -150 425 -225 590 -228 72 -2 104 10 104 38 0 14 -10 19 -215 106 -82 35 -175 77 -205 93 -30 17 -66 37 -80 44 -40 21 -136 92 -124 92 6 0 37 -9 70 -21 128 -44 290 -73 393 -71 108 2 162 42 79 57 -65 12 -72 13 -155 35 -295 77 -613 247 -993 529 l-115 86 -280 2 c-154 0 -302 3 -330 6 -142 16 -206 25 -320 49 -55 11 -143 34 -195 51 -52 17 -98 30 -102 29 -40 -10 50 106 192 249 134 136 136 137 260 196 140 67 975 596 915 580 -11 -3 -169 -56 -351 -118 l-331 -112 -73 37 c-92 46 -147 48 -207 9 -23 -14 -52 -44 -64 -65 -72 -117 -105 -161 -181 -238 -188 -191 -273 -256 -364 -278 -16 -4 -69 -7 -119 -6 -94 0 -172 21 -303 81 -54 24 -241 131 -252 143 -3 4 -39 29 -80 58 -41 28 -87 62 -101 74 -15 13 -48 41 -75 63 -46 38 -123 104 -134 115 -12 12 -150 120 -200 157 -86 64 -155 98 -290 143 -350 119 -614 249 -915 450 -60 40 -112 76 -115 80 -3 3 -34 28 -70 55 -54 41 -168 138 -254 217 -26 24 -46 23 -46 -3z" transform="translate(0.000000,700.000000) scale(0.100000,-0.100000)" fill="#000000"/></svg>